<?xml version="1.0" encoding="UTF-8" standalone="no"?>
<!DOCTYPE svg PUBLIC "-//W3C//DTD SVG 1.1//EN" "http://www.w3.org/Graphics/SVG/1.1/DTD/svg11.dtd">
<svg xmlns="http://www.w3.org/2000/svg" version="1.1" viewBox="0.00 0.00 1024.00 1024.00">
<ellipse fill="#000000" cx="0.00" cy="0.00" transform="translate(563.15,195.11) rotate(102.3)" rx="10.97" ry="10.80"/>
<path fill="#000000" d="
  M 516.05 241.62
  Q 516.06 242.05 516.49 242.05
  Q 601.48 241.97 686.26 242.07
  Q 703.28 242.10 706.25 242.31
  C 746.74 245.23 781.06 273.13 788.15 313.82
  Q 789.29 320.38 789.30 333.75
  Q 789.44 580.62 789.35 649.00
  C 789.32 676.65 748.81 678.16 748.82 649.75
  Q 748.87 492.25 748.83 334.75
  C 748.83 310.35 732.14 289.75 708.66 284.70
  Q 702.89 283.46 688.75 283.42
  Q 603.05 283.18 516.57 283.46
  A 1.68 1.67 -83.5 0 0 514.94 284.76
  Q 514.42 287.06 513.15 289.86
  Q 505.42 306.92 487.01 310.82
  Q 483.46 311.58 471.54 311.54
  Q 420.77 311.37 370.00 311.29
  C 352.33 311.27 341.18 299.84 335.41 284.27
  A 1.48 1.47 79.0 0 0 334.00 283.31
  Q 329.98 283.40 325.50 283.56
  C 298.80 284.52 277.33 306.97 277.12 333.50
  Q 277.04 344.75 277.04 356.00
  Q 277.13 544.13 277.03 732.25
  Q 277.02 748.48 277.52 752.22
  C 281.05 778.80 304.36 796.68 330.50 798.73
  Q 335.02 799.09 350.50 799.08
  Q 515.62 798.99 680.75 798.98
  Q 688.37 798.97 695.98 798.47
  Q 724.81 796.54 740.69 773.70
  C 747.36 764.10 748.73 754.43 748.78 741.66
  Q 748.83 729.08 748.85 716.50
  C 748.88 687.67 789.04 689.10 789.20 717.74
  Q 789.29 734.63 789.37 751.50
  Q 789.43 765.16 785.69 776.37
  Q 774.07 811.20 742.47 828.45
  Q 725.16 837.90 705.24 839.36
  Q 702.12 839.59 685.26 839.59
  Q 440.50 839.72 327.75 839.60
  C 291.85 839.56 259.01 817.90 243.67 785.59
  C 237.68 772.97 236.48 762.52 236.48 747.17
  Q 236.38 539.96 236.47 332.74
  Q 236.47 319.61 237.72 312.83
  Q 241.36 293.01 253.93 276.73
  C 273.62 251.26 301.66 240.75 333.41 242.14
  A 1.11 1.10 -89.0 0 0 334.56 241.02
  C 334.41 225.53 332.39 208.01 343.56 195.81
  C 352.21 186.37 362.53 185.07 375.00 185.08
  Q 426.87 185.15 478.75 185.05
  C 482.91 185.04 488.90 185.73 492.95 187.09
  C 507.25 191.86 515.96 205.89 515.92 220.74
  Q 515.89 231.31 516.05 241.62
  Z
  M 418.05 247.54
  A 18.58 18.58 0.0 0 0 399.47 228.96
  A 18.58 18.58 0.0 0 0 380.89 247.54
  A 18.58 18.58 0.0 0 0 399.47 266.12
  A 18.58 18.58 0.0 0 0 418.05 247.54
  Z
  M 469.27 247.55
  A 18.52 18.52 0.0 0 0 450.75 229.03
  A 18.52 18.52 0.0 0 0 432.23 247.55
  A 18.52 18.52 0.0 0 0 450.75 266.07
  A 18.52 18.52 0.0 0 0 469.27 247.55
  Z"
/>
<circle fill="#000000" cx="642.19" cy="219.28" r="5.37"/>
<path fill="#000000" d="
  M 659.29 319.68
  C 680.55 330.78 695.72 350.24 699.11 373.92
  A 0.79 0.78 86.1 0 1 698.34 374.81
  Q 665.06 374.85 631.75 374.74
  Q 624.10 374.71 617.99 372.48
  C 597.54 365.02 591.53 337.46 605.86 321.55
  Q 615.27 311.09 631.50 312.24
  Q 647.14 313.35 659.29 319.68
  Z
  M 660.34 347.40
  A 13.93 13.93 0.0 0 0 646.41 333.47
  A 13.93 13.93 0.0 0 0 632.48 347.40
  A 13.93 13.93 0.0 0 0 646.41 361.33
  A 13.93 13.93 0.0 0 0 660.34 347.40
  Z"
/>
<circle fill="#000000" cx="322.23" cy="347.10" r="11.52"/>
<path fill="#000000" d="
  M 376.03 384.47
  C 381.04 392.23 390.43 394.62 398.58 390.29
  C 400.97 389.02 403.03 386.73 404.90 384.67
  A 1.35 1.34 -62.1 0 1 406.22 384.26
  C 412.74 385.80 423.83 390.27 418.92 399.44
  C 414.90 406.97 405.32 411.76 396.94 413.37
  C 384.27 415.82 371.70 411.57 362.63 402.39
  Q 346.63 386.21 352.73 364.00
  C 356.55 350.11 368.72 339.29 382.99 336.88
  C 394.65 334.91 411.42 338.09 417.71 349.47
  C 422.53 358.19 414.32 363.53 407.26 365.05
  Q 405.22 365.48 403.46 363.80
  Q 400.30 360.75 396.20 359.21
  C 381.10 353.53 367.24 370.85 376.03 384.47
  Z"
/>
<path fill="#000000" d="
  M 514.28 349.26
  A 12.25 12.25 0.0 0 1 526.44 336.92
  L 536.28 336.85
  A 42.43 36.76 -0.4 0 1 578.97 373.31
  L 578.97 374.19
  A 42.43 36.76 -0.4 0 1 536.80 411.25
  L 526.96 411.32
  A 12.25 12.25 0.0 0 1 514.62 399.15
  L 514.28 349.26
  Z"
/>
<ellipse fill="#000000" cx="0.00" cy="0.00" transform="translate(466.68,374.21) rotate(94.9)" rx="35.61" ry="34.99"/>
<path fill="#000000" d="
  M 535.13 608.04
  A 0.77 0.76 23.1 0 0 534.72 607.04
  C 508.89 596.27 489.90 572.80 485.55 545.12
  C 484.65 539.43 484.76 531.99 484.38 526.57
  C 483.08 508.41 470.84 493.87 453.70 488.45
  Q 447.83 486.60 436.27 486.30
  Q 419.05 485.86 408.26 486.72
  C 385.88 488.50 374.97 512.45 386.50 531.21
  Q 393.20 542.12 405.33 546.33
  C 413.67 549.22 425.09 548.56 434.41 548.56
  Q 447.24 548.57 450.95 549.68
  C 460.31 552.48 468.16 563.28 465.78 573.50
  C 463.67 582.57 455.55 588.50 446.25 588.79
  Q 433.96 589.18 400.00 588.94
  C 342.27 588.54 306.63 530.49 327.84 477.83
  C 336.04 457.47 354.60 440.88 376.13 436.38
  Q 384.80 434.57 397.25 434.72
  Q 440.51 435.24 483.75 436.32
  Q 560.21 438.23 636.68 438.43
  Q 640.81 438.44 642.73 437.73
  C 653.29 433.80 649.86 417.83 638.50 417.96
  Q 624.91 418.11 611.32 417.98
  Q 605.63 417.93 602.95 416.58
  C 594.79 412.48 594.55 400.28 603.11 396.38
  Q 605.98 395.07 610.25 395.07
  Q 647.88 395.08 685.50 395.01
  C 689.84 395.00 694.83 395.37 698.60 397.29
  C 706.84 401.49 710.02 410.50 710.76 419.25
  C 713.84 455.67 687.36 492.80 648.50 492.84
  Q 615.75 492.87 583.00 492.81
  C 579.10 492.80 574.23 492.95 570.39 493.83
  C 545.97 499.39 534.80 530.03 555.83 547.52
  Q 565.33 555.41 578.01 555.75
  Q 587.85 556.01 614.56 555.95
  Q 622.53 555.94 626.28 557.35
  C 634.69 560.50 640.81 568.64 641.18 577.75
  Q 641.54 586.30 641.19 609.17
  C 641.04 619.03 637.82 627.02 628.24 630.48
  Q 624.18 631.94 614.47 631.88
  Q 580.98 631.66 547.50 631.82
  C 537.65 631.87 529.62 623.02 532.75 613.02
  C 533.24 611.46 534.43 609.70 535.13 608.04
  Z
  M 617.24 605.43
  A 9.73 9.73 0.0 0 0 607.51 595.70
  A 9.73 9.73 0.0 0 0 597.78 605.43
  A 9.73 9.73 0.0 0 0 607.51 615.16
  A 9.73 9.73 0.0 0 0 617.24 605.43
  Z
  M 571.8457 614.6390
  A 6.55 6.27 91.0 0 0 578.2290 608.1994
  A 6.55 6.27 91.0 0 0 572.0743 601.5410
  A 6.55 6.27 91.0 0 0 565.6910 607.9806
  A 6.55 6.27 91.0 0 0 571.8457 614.6390
  Z"
/>
<circle fill="#000000" cx="323.44" cy="420.39" r="12.02"/>
<rect fill="#000000" x="-25.28" y="-10.62" transform="translate(432.66,518.05) rotate(-0.4)" width="50.56" height="21.24" rx="10.17"/>
<path fill="#000000" d="
  M 690.43 567.54
  C 688.59 569.30 688.56 570.61 688.53 573.00
  Q 688.37 585.16 688.50 588.50
  C 688.73 594.21 684.01 599.34 678.63 600.10
  C 671.44 601.12 665.02 595.69 665.03 588.24
  Q 665.04 574.13 664.94 560.00
  C 664.92 555.84 669.21 550.98 672.72 547.96
  Q 679.36 542.24 685.96 536.47
  C 687.79 534.87 689.09 533.53 689.08 530.87
  C 689.05 524.16 687.38 516.10 692.94 511.19
  C 698.86 505.97 708.73 507.97 711.68 515.33
  Q 712.72 517.91 712.76 524.31
  Q 712.81 532.40 712.83 540.50
  C 712.85 545.40 709.94 548.88 705.95 552.69
  Q 698.19 560.12 690.43 567.54
  Z"
/>
<path fill="#000000" d="
  M 629.25 513.53
  C 645.56 513.41 645.19 534.72 629.50 534.95
  Q 619.69 535.09 587.89 534.96
  Q 581.72 534.93 579.05 533.51
  C 571.36 529.42 571.15 517.91 579.31 514.69
  Q 581.72 513.74 588.27 513.73
  Q 608.78 513.67 629.25 513.53
  Z"
/>
<ellipse fill="#000000" cx="0.00" cy="0.00" transform="translate(330.00,607.22) rotate(83.4)" rx="15.85" ry="15.62"/>
<path fill="#000000" d="
  M 426.24 631.30
  C 422.02 631.23 417.60 628.00 416.11 624.27
  C 413.03 616.55 418.77 609.64 426.99 609.65
  Q 451.52 609.68 476.06 609.61
  Q 481.75 609.59 483.87 610.23
  C 487.77 611.40 491.40 614.95 491.75 619.18
  C 492.35 626.22 485.44 631.18 479.00 631.26
  Q 448.22 631.62 426.24 631.30
  Z"
/>
<ellipse fill="#000000" cx="0.00" cy="0.00" transform="translate(375.59,618.71) rotate(80.7)" rx="5.30" ry="5.10"/>
<path fill="#000000" d="
  M 630.97 699.98
  Q 629.42 698.42 629.44 700.62
  Q 629.62 727.38 629.32 754.25
  C 629.18 767.03 610.69 769.73 606.16 757.50
  Q 605.41 755.48 605.40 750.75
  Q 605.27 696.20 605.37 681.23
  C 605.44 672.15 609.84 665.37 618.99 663.80
  C 627.70 662.31 632.68 666.45 638.57 672.43
  C 645.29 679.27 651.76 687.05 658.92 693.34
  A 2.59 2.59 0.0 0 0 662.05 693.56
  Q 663.49 692.62 664.86 691.12
  Q 681.95 672.53 687.84 667.59
  C 698.94 658.29 714.86 666.05 714.84 680.50
  Q 714.79 716.87 714.52 753.25
  C 714.39 769.52 690.80 769.93 690.76 752.75
  Q 690.70 726.64 690.90 700.72
  Q 690.91 699.14 689.79 700.26
  Q 679.64 710.36 669.19 721.19
  C 662.26 728.37 656.22 726.69 650.16 720.09
  Q 640.39 709.47 630.97 699.98
  Z"
/>
<path fill="#000000" d="
  M 318.20 677.05
  A 13.15 13.15 0.0 0 1 331.37 663.92
  L 350.36 663.95
  A 50.34 49.81 0.1 0 1 400.61 713.85
  L 400.61 715.19
  A 50.34 49.81 0.1 0 1 350.18 764.91
  L 331.19 764.88
  A 13.15 13.15 0.0 0 1 318.06 751.71
  L 318.20 677.05
  Z
  M 342.17 689.36
  L 341.99 740.16
  A 1.31 1.31 0.0 0 0 343.30 741.47
  L 349.55 741.50
  A 26.86 26.54 0.2 0 0 376.50 715.05
  L 376.50 714.71
  A 26.86 26.54 0.2 0 0 349.73 688.08
  L 343.48 688.05
  A 1.31 1.31 0.0 0 0 342.17 689.36
  Z"
/>
<path fill="#000000" d="
  M 439.85 733.37
  Q 438.58 731.99 438.63 733.86
  Q 438.91 744.01 438.46 754.22
  C 437.82 768.99 414.92 769.73 414.92 752.25
  Q 414.92 714.62 414.98 676.99
  Q 415.00 668.76 421.07 665.60
  Q 424.10 664.02 431.17 663.97
  Q 441.34 663.89 451.49 664.08
  C 470.59 664.42 485.65 678.87 486.02 698.23
  C 486.27 710.90 477.28 721.94 465.93 726.56
  A 0.83 0.83 0.0 0 0 465.62 727.88
  Q 473.98 737.25 483.03 745.98
  C 495.21 757.74 481.05 769.24 468.82 763.93
  C 466.80 763.05 463.19 759.23 461.15 756.94
  Q 450.32 744.81 439.85 733.37
  Z
  M 438.91 688.67
  L 438.91 707.13
  A 0.95 0.95 0.0 0 0 439.86 708.08
  L 450.77 708.08
  A 10.58 10.02 0.0 0 0 461.35 698.06
  L 461.35 697.74
  A 10.58 10.02 -0.0 0 0 450.77 687.72
  L 439.86 687.72
  A 0.95 0.95 0.0 0 0 438.91 688.67
  Z"
/>
<path fill="#000000" d="
  M 529.81 740.81
  C 536.26 740.73 546.10 739.80 551.36 741.71
  C 562.23 745.66 560.25 760.30 549.89 763.89
  Q 548.02 764.54 543.50 764.59
  Q 531.25 764.73 519.00 764.73
  Q 510.21 764.73 507.00 758.31
  Q 505.49 755.27 505.44 747.95
  Q 505.21 714.02 505.26 680.09
  Q 505.27 674.01 506.68 671.14
  C 509.53 665.38 514.32 664.07 520.84 664.01
  Q 541.29 663.84 550.50 664.03
  C 570.94 664.45 585.78 682.99 588.38 702.09
  Q 588.81 705.21 588.78 719.93
  Q 588.75 735.85 588.72 751.76
  Q 588.69 761.58 580.97 764.45
  C 574.06 767.03 567.26 763.94 564.95 756.99
  Q 564.15 754.57 564.10 748.91
  Q 564.02 737.50 563.98 726.15
  Q 563.98 724.94 562.77 724.94
  L 529.69 725.02
  Q 529.01 725.02 529.02 725.69
  L 529.16 740.18
  A 0.65 0.64 -0.4 0 0 529.81 740.81
  Z
  M 563.27 700.77
  C 561.76 696.31 558.35 690.52 553.80 688.77
  Q 551.95 688.06 548.30 688.05
  Q 539.09 688.01 530.02 688.21
  A 0.75 0.74 -0.0 0 0 529.28 688.94
  L 529.12 701.46
  A 0.84 0.84 0.0 0 0 529.97 702.32
  L 562.23 702.22
  Q 563.76 702.21 563.27 700.77
  Z"
/>
</svg>
